<mxfile host="Electron" agent="Mozilla/5.0 (Windows NT 10.0; Win64; x64) AppleWebKit/537.36 (KHTML, like Gecko) draw.io/24.7.5 Chrome/126.0.6478.183 Electron/31.3.0 Safari/537.36" version="24.7.5">
  <diagram name="第 1 页" id="onsD3_0qg8jj1Ziol4ic">
    <mxGraphModel dx="1004" dy="746" grid="1" gridSize="10" guides="1" tooltips="1" connect="1" arrows="1" fold="1" page="1" pageScale="1" pageWidth="827" pageHeight="1169" math="0" shadow="0">
      <root>
        <mxCell id="0" />
        <mxCell id="1" parent="0" />
        <mxCell id="1uS97HxXs2MOmeYGMWm8-3" style="edgeStyle=orthogonalEdgeStyle;rounded=0;orthogonalLoop=1;jettySize=auto;html=1;exitX=1;exitY=0.5;exitDx=0;exitDy=0;entryX=0;entryY=0.5;entryDx=0;entryDy=0;" edge="1" parent="1" source="1uS97HxXs2MOmeYGMWm8-1" target="1uS97HxXs2MOmeYGMWm8-2">
          <mxGeometry relative="1" as="geometry" />
        </mxCell>
        <mxCell id="1uS97HxXs2MOmeYGMWm8-1" value="&lt;font style=&quot;font-size: 16px;&quot;&gt;用户浏览宠物护理视频界面&lt;/font&gt;" style="rounded=1;whiteSpace=wrap;html=1;" vertex="1" parent="1">
          <mxGeometry x="200" y="280" width="120" height="60" as="geometry" />
        </mxCell>
        <mxCell id="1uS97HxXs2MOmeYGMWm8-5" style="edgeStyle=orthogonalEdgeStyle;rounded=0;orthogonalLoop=1;jettySize=auto;html=1;exitX=0.5;exitY=1;exitDx=0;exitDy=0;entryX=0.5;entryY=0;entryDx=0;entryDy=0;" edge="1" parent="1" source="1uS97HxXs2MOmeYGMWm8-2" target="1uS97HxXs2MOmeYGMWm8-4">
          <mxGeometry relative="1" as="geometry" />
        </mxCell>
        <mxCell id="1uS97HxXs2MOmeYGMWm8-2" value="&lt;font style=&quot;font-size: 16px;&quot;&gt;点击播放某个视频&lt;/font&gt;" style="rounded=1;whiteSpace=wrap;html=1;" vertex="1" parent="1">
          <mxGeometry x="370" y="280" width="120" height="60" as="geometry" />
        </mxCell>
        <mxCell id="1uS97HxXs2MOmeYGMWm8-9" style="edgeStyle=orthogonalEdgeStyle;rounded=0;orthogonalLoop=1;jettySize=auto;html=1;exitX=0;exitY=0.5;exitDx=0;exitDy=0;entryX=1;entryY=0.5;entryDx=0;entryDy=0;" edge="1" parent="1" source="1uS97HxXs2MOmeYGMWm8-4" target="1uS97HxXs2MOmeYGMWm8-6">
          <mxGeometry relative="1" as="geometry" />
        </mxCell>
        <mxCell id="1uS97HxXs2MOmeYGMWm8-4" value="&lt;font style=&quot;font-size: 16px;&quot;&gt;系统播放视频&lt;/font&gt;" style="rounded=1;whiteSpace=wrap;html=1;" vertex="1" parent="1">
          <mxGeometry x="370" y="380" width="120" height="60" as="geometry" />
        </mxCell>
        <mxCell id="1uS97HxXs2MOmeYGMWm8-8" style="edgeStyle=orthogonalEdgeStyle;rounded=0;orthogonalLoop=1;jettySize=auto;html=1;exitX=0.5;exitY=1;exitDx=0;exitDy=0;entryX=0.5;entryY=0;entryDx=0;entryDy=0;" edge="1" parent="1" source="1uS97HxXs2MOmeYGMWm8-6" target="1uS97HxXs2MOmeYGMWm8-7">
          <mxGeometry relative="1" as="geometry" />
        </mxCell>
        <mxCell id="1uS97HxXs2MOmeYGMWm8-6" value="&lt;font style=&quot;font-size: 16px;&quot;&gt;用户选择退出&lt;/font&gt;" style="rounded=1;whiteSpace=wrap;html=1;" vertex="1" parent="1">
          <mxGeometry x="200" y="380" width="120" height="60" as="geometry" />
        </mxCell>
        <mxCell id="1uS97HxXs2MOmeYGMWm8-7" value="&lt;font style=&quot;font-size: 16px;&quot;&gt;中止播放&lt;/font&gt;" style="rounded=1;whiteSpace=wrap;html=1;" vertex="1" parent="1">
          <mxGeometry x="200" y="480" width="120" height="60" as="geometry" />
        </mxCell>
      </root>
    </mxGraphModel>
  </diagram>
</mxfile>
